<mxfile host="app.diagrams.net" agent="Mozilla/5.0 (Windows NT 10.0; Win64; x64) AppleWebKit/537.36 (KHTML, like Gecko) Chrome/132.0.0.0 Safari/537.36 Edg/132.0.0.0" version="26.2.8">
  <diagram name="Page-1" id="RGOq8lqfi6i8Ctn7MAA8">
    <mxGraphModel dx="1044" dy="636" grid="0" gridSize="10" guides="1" tooltips="1" connect="1" arrows="1" fold="1" page="1" pageScale="1" pageWidth="850" pageHeight="1100" background="light-dark(#000000,#000000)" math="0" shadow="0">
      <root>
        <mxCell id="0" />
        <mxCell id="1" parent="0" />
        <mxCell id="wvd1j4CsccvjR-k-unC9-2" value="VPC" style="points=[[0,0],[0.25,0],[0.5,0],[0.75,0],[1,0],[1,0.25],[1,0.5],[1,0.75],[1,1],[0.75,1],[0.5,1],[0.25,1],[0,1],[0,0.75],[0,0.5],[0,0.25]];outlineConnect=0;gradientColor=none;html=1;whiteSpace=wrap;fontSize=12;fontStyle=0;container=1;pointerEvents=0;collapsible=0;recursiveResize=0;shape=mxgraph.aws4.group;grIcon=mxgraph.aws4.group_vpc2;strokeColor=#8C4FFF;fillColor=none;verticalAlign=top;align=left;spacingLeft=30;fontColor=#AAB7B8;dashed=0;" parent="1" vertex="1">
          <mxGeometry x="270" y="280" width="336" height="319" as="geometry" />
        </mxCell>
        <mxCell id="wvd1j4CsccvjR-k-unC9-3" value="Public subnet" style="points=[[0,0],[0.25,0],[0.5,0],[0.75,0],[1,0],[1,0.25],[1,0.5],[1,0.75],[1,1],[0.75,1],[0.5,1],[0.25,1],[0,1],[0,0.75],[0,0.5],[0,0.25]];outlineConnect=0;gradientColor=none;html=1;whiteSpace=wrap;fontSize=12;fontStyle=0;container=1;pointerEvents=0;collapsible=0;recursiveResize=0;shape=mxgraph.aws4.group;grIcon=mxgraph.aws4.group_security_group;grStroke=0;strokeColor=#7AA116;fillColor=#F2F6E8;verticalAlign=top;align=left;spacingLeft=30;fontColor=#248814;dashed=0;" parent="wvd1j4CsccvjR-k-unC9-2" vertex="1">
          <mxGeometry x="30" y="29" width="294" height="277" as="geometry" />
        </mxCell>
        <mxCell id="wvd1j4CsccvjR-k-unC9-11" value="Lambda" style="outlineConnect=0;dashed=0;verticalLabelPosition=bottom;verticalAlign=top;align=center;html=1;shape=mxgraph.aws3.lambda_function;fillColor=#F58534;gradientColor=none;" parent="wvd1j4CsccvjR-k-unC9-3" vertex="1">
          <mxGeometry x="29" y="51" width="69" height="72" as="geometry" />
        </mxCell>
        <mxCell id="wvd1j4CsccvjR-k-unC9-18" value="" style="edgeStyle=orthogonalEdgeStyle;html=1;endArrow=block;elbow=vertical;startArrow=none;endFill=1;strokeColor=#FF3333;rounded=0;entryX=0;entryY=0.5;entryDx=0;entryDy=0;entryPerimeter=0;" parent="wvd1j4CsccvjR-k-unC9-3" source="wvd1j4CsccvjR-k-unC9-11" target="c7iJ_6Ejtbwq_aCWZult-1" edge="1">
          <mxGeometry width="100" relative="1" as="geometry">
            <mxPoint x="-58" y="265" as="sourcePoint" />
            <mxPoint x="39" y="265" as="targetPoint" />
          </mxGeometry>
        </mxCell>
        <mxCell id="c7iJ_6Ejtbwq_aCWZult-1" value="Aurora PostgreSQL" style="sketch=0;points=[[0,0,0],[0.25,0,0],[0.5,0,0],[0.75,0,0],[1,0,0],[0,1,0],[0.25,1,0],[0.5,1,0],[0.75,1,0],[1,1,0],[0,0.25,0],[0,0.5,0],[0,0.75,0],[1,0.25,0],[1,0.5,0],[1,0.75,0]];outlineConnect=0;fontColor=#232F3E;fillColor=#C925D1;strokeColor=#ffffff;dashed=0;verticalLabelPosition=bottom;verticalAlign=top;align=center;html=1;fontSize=12;fontStyle=0;aspect=fixed;shape=mxgraph.aws4.resourceIcon;resIcon=mxgraph.aws4.aurora;" parent="wvd1j4CsccvjR-k-unC9-3" vertex="1">
          <mxGeometry x="174" y="48" width="78" height="78" as="geometry" />
        </mxCell>
        <mxCell id="wvd1j4CsccvjR-k-unC9-4" value="API Gateway HTTP" style="sketch=0;points=[[0,0,0],[0.25,0,0],[0.5,0,0],[0.75,0,0],[1,0,0],[0,1,0],[0.25,1,0],[0.5,1,0],[0.75,1,0],[1,1,0],[0,0.25,0],[0,0.5,0],[0,0.75,0],[1,0.25,0],[1,0.5,0],[1,0.75,0]];outlineConnect=0;fillColor=#E7157B;strokeColor=#ffffff;dashed=0;verticalLabelPosition=bottom;verticalAlign=top;align=center;html=1;aspect=fixed;shape=mxgraph.aws4.resourceIcon;resIcon=mxgraph.aws4.api_gateway;fontColor=light-dark(#FFFFFF, #fff5f5);" parent="1" vertex="1">
          <mxGeometry x="157" y="357" width="78" height="78" as="geometry" />
        </mxCell>
        <mxCell id="wvd1j4CsccvjR-k-unC9-13" value="" style="edgeStyle=orthogonalEdgeStyle;html=1;endArrow=block;elbow=vertical;startArrow=none;endFill=1;strokeColor=#FF3333;rounded=0;" parent="1" source="wvd1j4CsccvjR-k-unC9-4" target="wvd1j4CsccvjR-k-unC9-11" edge="1">
          <mxGeometry width="100" relative="1" as="geometry">
            <mxPoint x="235" y="396" as="sourcePoint" />
            <mxPoint x="329" y="396" as="targetPoint" />
          </mxGeometry>
        </mxCell>
        <mxCell id="c7iJ_6Ejtbwq_aCWZult-11" value="Secrets Manager" style="sketch=0;points=[[0,0,0],[0.25,0,0],[0.5,0,0],[0.75,0,0],[1,0,0],[0,1,0],[0.25,1,0],[0.5,1,0],[0.75,1,0],[1,1,0],[0,0.25,0],[0,0.5,0],[0,0.75,0],[1,0.25,0],[1,0.5,0],[1,0.75,0]];outlineConnect=0;fontColor=#232F3E;fillColor=#DD344C;strokeColor=#ffffff;dashed=0;verticalLabelPosition=bottom;verticalAlign=top;align=center;html=1;fontSize=12;fontStyle=0;aspect=fixed;shape=mxgraph.aws4.resourceIcon;resIcon=mxgraph.aws4.secrets_manager;" parent="1" vertex="1">
          <mxGeometry x="324" y="483" width="78" height="78" as="geometry" />
        </mxCell>
        <mxCell id="c7iJ_6Ejtbwq_aCWZult-12" value="" style="edgeStyle=orthogonalEdgeStyle;html=1;endArrow=block;elbow=vertical;startArrow=none;endFill=1;strokeColor=#FF3333;rounded=0;" parent="1" source="wvd1j4CsccvjR-k-unC9-11" target="c7iJ_6Ejtbwq_aCWZult-11" edge="1">
          <mxGeometry width="100" relative="1" as="geometry">
            <mxPoint x="245" y="406" as="sourcePoint" />
            <mxPoint x="339" y="406" as="targetPoint" />
          </mxGeometry>
        </mxCell>
      </root>
    </mxGraphModel>
  </diagram>
</mxfile>
